<?xml version="1.0" encoding="utf-8"?>
<!-- Generator: Adobe Illustrator 24.0.0, SVG Export Plug-In . SVG Version: 6.00 Build 0)  -->
<svg version="1.1" id="Layer_1" xmlns="http://www.w3.org/2000/svg" xmlns:xlink="http://www.w3.org/1999/xlink" x="0px" y="0px"
	 viewBox="0 0 595.28 841.89" style="enable-background:new 0 0 595.28 841.89;" xml:space="preserve">
<style type="text/css">
	.st0{fill:#72BF49;}
	.st1{fill:#FFFFFF;}
	.st2{fill:#646568;}
</style>
<g>
	<g>
		<path class="st0" d="M229.83,331.36h133.64v109.97c0,0-2.04,9.79-9.79,9.79c-7.76,0-14.89,0-14.89,0v35.3
			c0,0-0.62,14.89-14.9,14.89c-14.28,0-14.9-14.89-14.9-14.89v-34.28h-24.48v35.3c0,0,0.2,13.46-15.31,13.26
			c0,0-14.28-0.2-14.28-14.28c0-14.08,0-34.89,0-34.89h-14.49c0,0-10.61,0.61-10.61-10.62
			C229.83,429.69,229.83,331.36,229.83,331.36z"/>
		<path class="st0" d="M372.34,345.84c0,0,0.01-14.48,14.49-14.48c14.48,0,14.59,12.44,14.59,14.59c0,2.14,0,63.15,0,63.15
			s1.43,13.62-13.62,13.62c-15.04,0-15.46-9.94-15.46-14.23C372.34,404.2,372.34,345.84,372.34,345.84z"/>
		<path class="st0" d="M191.06,345.84c0,0,0-14.48,14.49-14.48c14.48,0,14.59,12.44,14.59,14.59c0,2.14,0,63.15,0,63.15
			s1.43,13.62-13.62,13.62c-15.05,0-15.45-9.94-15.45-14.23C191.06,404.2,191.06,345.84,191.06,345.84z"/>
		<path class="st0" d="M328.99,274.7l11.56-17.11c1.95-2.76-0.49-3.42-0.49-3.42c-1.63-1.3-2.93,0.98-2.93,0.98l-11.99,17.83
			c-8.4-3.43-17.75-5.38-27.67-5.47c-10.24-0.1-19.97,1.8-28.72,5.31c-3.6-5.19-12.92-18.58-13.58-18.97
			c-0.81-0.49-1.96,0.49-1.96,0.49c-2.11,1.63-1.14,2.44-1.14,2.44l12.19,18c-18.67,9.05-32.02,25.83-34.6,46.38h133.75
			C360.93,300.55,347.72,283.72,328.99,274.7z"/>
		<path class="st1" d="M332.88,295.76c0,4.11-3.33,7.45-7.45,7.45c-4.11,0-7.45-3.34-7.45-7.45c0-4.11,3.33-7.45,7.45-7.45
			C329.54,288.31,332.88,291.65,332.88,295.76z"/>
		<path class="st1" d="M275.63,295.76c0,4.11-3.33,7.45-7.45,7.45c-4.11,0-7.45-3.34-7.45-7.45c0-4.11,3.34-7.45,7.45-7.45
			C272.29,288.31,275.63,291.65,275.63,295.76z"/>
	</g>
	<g>
		<path class="st2" d="M146.09,589.58v-10.96h-14.25c0,0-11.48-4.35-10.82-14.52c0,0,0.53-10.95,9.64-13.45h24.01v38.53h10.82
			v-49.61h-32.85c0,0-20.72,1.19-21.51,24.94c0,0,0.4,21.51,23.1,24.93L146.09,589.58z"/>
		<path class="st2" d="M434.66,579.13v10.03l28.47-0.39c0,0,20.68-1.45,20.43-24.68c0,0,1.24-22.69-20.3-24.67H434.9v10.69h25.39
			c0,0,13.37,1.18,12.01,14.91c0,0,1.48,13.72-12.63,13.99L434.66,579.13z"/>
		<path class="st2" d="M237.59,578.55v10.03l28.47-0.4c0,0,20.68-1.45,20.43-24.67c0,0,1.24-22.7-20.31-24.67h-28.35v10.68h25.38
			c0,0,13.37,1.19,12.01,14.91c0,0,1.49,13.72-12.63,13.98L237.59,578.55z"/>
		<path class="st2" d="M187.12,589.18h-10.03l0.39-30.35c0,0,1.45-22.03,24.67-21.77c0,0,22.69-1.32,24.67,21.64v30.21h-10.68
			v-27.04c0,0-1.19-14.26-14.91-12.8c0,0-13.72-1.59-13.99,13.46L187.12,589.18z"/>
		<path class="st2" d="M297.8,550.05V539.4h27.98c0,0,15.39,0.22,15.39,17.65c0,0,0.43,9.14-7.75,14.85c0,0-0.87,0.43-0.26,1.15
			c0.07,0.07,0.16,0.16,0.26,0.24c1.08,0.86,6.24,4.42,6.24,16.03h-10.76c0,0-0.65-13.66-11.51-13.66h-19.9v-11.84h26.69
			c0,0,6.24-0.32,6.02-7.32c0,0,0.75-6.56-7.31-6.56L297.8,550.05z"/>
		<path class="st2" d="M376.67,537.79c-14.32,0-25.93,11.58-25.93,25.87c0,14.3,11.61,25.88,25.93,25.88
			c14.32,0,25.93-11.58,25.93-25.88C402.6,549.37,390.99,537.79,376.67,537.79z M376.67,578.56c-8.25,0-14.94-6.67-14.94-14.91
			c0-8.23,6.69-14.9,14.94-14.9c8.25,0,14.93,6.67,14.93,14.9C391.6,571.89,384.92,578.56,376.67,578.56z"/>
		<rect x="413.04" y="539.51" class="st2" width="11.3" height="49.92"/>
	</g>
</g>
</svg>
