<?xml version="1.0" encoding="utf-8"?>
<!-- Generator: Adobe Illustrator 25.1.0, SVG Export Plug-In . SVG Version: 6.00 Build 0)  -->
<svg version="1.1" id="Layer_1" xmlns="http://www.w3.org/2000/svg" xmlns:xlink="http://www.w3.org/1999/xlink" x="0px" y="0px"
	 viewBox="0 0 733 203" style="enable-background:new 0 0 733 203;" xml:space="preserve">
<style type="text/css">
	.st0{fill-rule:evenodd;clip-rule:evenodd;}
	.st1{fill:#F8672B;}
	.st2{fill:#92C301;}
	.st3{fill:#FFC400;}
	.st4{fill:#00B3F0;}
</style>
<path class="st0" d="M678.4,1.3c-8.7,4-13.3,11.2-14.5,22.6c-0.4,3.6-1.2,6.9-1.8,7.3c-0.6,0.4-2.6,0.7-4.4,0.8
	c-3.8,0-5,1.9-3.6,5.9c0.8,2.1,1.5,2.6,3.7,2.3c5.6-0.7,5.7-0.2,5.7,27.4c0,13.9,0.3,26,0.6,26.9c0.8,2,9.6,2.2,11.3,0.2
	c0.7-0.9,1.2-10.3,1.4-27.7l0.3-26.3l11.4-0.3c7.2-0.2,11.9,0.1,12.8,0.8c1,0.8,1.3,5.9,1.3,22c0,22.8,0.5,25.2,5.6,30
	c3.9,3.6,10.3,5.2,17.6,4.3l5.9-0.7l-0.3-4.1l-0.3-4.1l-5.7-0.5c-4.2-0.4-6.4-1.1-8-2.8c-2.2-2.2-2.3-3-2.6-22.7l-0.3-20.5l2.8-1.1
	c1.5-0.6,5.5-0.9,8.8-0.7l6,0.3l0.3-4.2l0.3-4.3l-6.8,0c-11.5,0-11.3,0.2-11.3-9.7v-8.5l-4.6,0.7c-7.4,1.1-7.4,1-7.4,8.4
	c0,3.9-0.5,7.2-1.2,7.9c-0.8,0.8-5,1.2-12.5,1.2c-13.2,0-13.4-0.1-12.2-9.2c1.4-10.1,6.5-14.7,15.2-13.5c2.7,0.4,4.7,0.2,5.5-0.6
	c1.7-1.7,1.4-7.4-0.4-8.2C694.2-0.5,681.1,0,678.4,1.3z M243.8,9.1c-0.4,0.6-0.9,3.5-1.1,6.2c-0.3,5.2-3.8,49.7-5.3,68.6
	c-0.5,5.8-0.6,10.8-0.4,11.2c0.6,1,8.5,0.9,10.2-0.2c1.1-0.7,1.9-9,3.6-35.7c1.2-19.2,2.3-35.1,2.4-35.3c0.4-1.5,2.2,2.7,4.6,10.5
	c1.5,4.9,4.2,12.8,6,17.5c1.8,4.7,5.1,13.7,7.4,20c2.3,6.3,4.5,12.4,5,13.5c0.5,1.1,1.6,3.7,2.4,5.8c1.5,3.7,1.6,3.8,6.2,3.5
	l4.7-0.3l5.2-13c12.7-31.5,17.3-43.5,19.4-50c2.6-8.1,3.7-9.7,4.4-6.4c0.3,1.3,1.3,15.7,2.2,31.9c1,16.2,1.8,31.2,2,33.4
	c0.3,4.5,1.6,5.6,6.4,5.6c6.1,0,6.1-0.1,5-15.8c-0.6-7.8-1.5-20.6-2-28.4c-2-28.5-3.1-41.3-3.5-42.5c-0.3-0.9-2.5-1.2-8.2-1L313,8.4
	l-9.9,24.5c-5.4,13.5-11.3,28.7-13.1,33.9c-1.8,5.2-3.7,9.6-4.3,9.8c-0.6,0.2-1.6-1.6-2.3-3.9c-2.1-8-16.6-47-22.3-60.1l-2.1-4.7
	h-7.3C247.4,7.9,244.3,8.4,243.8,9.1z M347.4,9.9c-5,5,0.2,12.9,7.5,11.6c1.9-0.4,3.9-1.5,4.5-2.5c1.6-3,1.2-7.6-0.8-9.4
	C356,7.3,349.9,7.5,347.4,9.9z M395.9,30.9c-17.6,3.7-28.8,21.4-25.4,39.9c2.8,15.2,11.3,23.4,27.3,26.1c7,1.2,19.7,0,23.9-2.2
	c2-1.1,2.3-4.8,0.5-7.1c-1.1-1.4-1.9-1.5-7.8-0.2c-18.7,4-31.9-5.9-32-24c0-8.4,2.4-14,8.1-18.9c6.5-5.6,12.2-6.4,29.3-4.4
	c1.4,0.2,2.2-0.7,2.9-3.1c1.1-3.7,0.4-4.9-3.4-5.9C415.3,30.3,400.2,30,395.9,30.9z M454.2,32c-2,1.1-5,3.5-6.5,5.5
	c-1.5,1.9-3.1,3.5-3.5,3.5c-0.4,0-0.8-1.9-1-4.2c-0.3-4.2-0.4-4.3-4.5-4.8c-2.3-0.3-4.7-0.3-5.3,0.1c-1.1,0.7-1.4,61.3-0.3,63.1
	c0.7,1.1,10.1,1.1,10.8,0c0.3-0.4,0.7-9.7,1.1-20.5c0.4-14.9,1-20.7,2.2-23.8c2-5.1,8.3-9.9,12.9-9.9c5.7,0,6.4-0.7,6.4-6.1v-4.9
	l-4.2,0C459.9,30,456.3,30.9,454.2,32z M484.2,32.4c-6.7,2.8-8,3.6-12.9,9c-7.6,8.3-10.1,24.5-5.5,35.6c3.2,7.8,7,12.4,13,15.8
	c17.7,10.1,40.9,3.8,49.5-13.4c4.3-8.6,4.4-22.5,0.2-32c-2.9-6.5-9.7-12.9-16.4-15.4C503.9,29,492,29.1,484.2,32.4z M550.8,31.4
	c-5.9,2.6-11.1,8.2-12.2,13.2c-2.2,10.1,2.9,16.6,17.7,22.8c13.1,5.4,16.3,11,10.3,17.8c-2.5,2.8-3.6,3.2-9,3.6
	c-4,0.3-7.8-0.1-11.1-1.2c-6.8-2.2-7.6-2.1-9.1,1.4c-1.7,4.2-0.2,5.6,8.6,7.4c8.8,1.9,10,1.9,18.4,0c12.7-2.9,18.8-11.3,16.1-22.1
	c-1.6-6.6-4.8-9.8-13.8-13.9c-13.4-6.1-14.5-6.8-16-9.9c-1.3-2.8-1.3-3.4,0.2-6.3c0.9-1.8,2.9-3.7,4.4-4.3c2.6-1,12.8-0.6,18.3,0.7
	c2.1,0.5,2.8,0.1,3.8-2.1c1.8-3.9,0.7-5.8-3.8-7.2C568.2,29.5,554.8,29.7,550.8,31.4z M609.4,30.8c-5.7,1.9-12.9,6.2-15.8,9.5
	c-6,6.8-7.6,11.9-7.7,23.6c0,9.9,0.1,10.8,3.2,16.6c5,9.6,11.8,14.3,23.7,16.5c5.4,1,7.9,1,12.8,0c11.9-2.5,19.5-7.9,24.6-17.6
	c2.4-4.5,2.6-6,2.6-16c0-12.7-1.8-17.8-8.5-24.5c-6.2-6.2-11.9-8.3-23-8.7C616.2,30.1,610.8,30.4,609.4,30.8z M347.7,63.7l0.3,31.7
	l4.8,0.3c2.7,0.2,5.4-0.1,6-0.7c1.3-1.1,2.4-57.3,1.2-61.1c-0.6-1.8-1.5-2-6.6-2h-5.9L347.7,63.7z M510.1,42.5
	c6.1,4.8,8.8,11.3,8.8,20.9c0,8.4-1.1,11.5-6.1,18.3c-3.5,4.6-7.8,6.6-14.8,6.6c-12,0.1-19.6-7.2-22.1-21.1
	c-0.9-4.7,1.6-15,4.8-19.7c4.3-6.4,9.5-8.8,18.5-8.4C505.3,39.4,506.8,39.9,510.1,42.5z M632.1,42.6c6,4.9,8.8,11.2,8.8,20.3
	c0,17-11.1,28.2-25.2,25.3c-7-1.4-11.6-5.2-15-12c-2.3-4.8-2.8-6.8-2.6-13.1c0.2-8.9,2-13.6,7.3-18.9c4.5-4.5,6-4.9,15.7-4.7
	C627.5,39.5,628.7,39.8,632.1,42.6z M311.9,106.9c-13.2,3.3-20.5,11.5-20.5,23.1c0,12.3,7.9,19.8,27.9,26.4
	c3.8,1.3,6.9,3.3,10.4,6.7c4.9,4.9,4.9,5,4.5,10.4c-0.5,5.8-3.4,10.1-9,13c-4.2,2.2-18.2,1.8-25.3-0.6c-7.7-2.6-8.2-2.6-9.5,1.5
	c-1.4,4.2-0.9,5.1,3.5,7c6.9,2.9,17.6,4,26.4,2.8c14.8-2.1,23.3-8.8,25.7-20.3c2.8-13.4-4.4-23.6-20.8-29.8
	c-9.2-3.4-17.1-7.9-19.1-10.7c-5.2-7.4-2.1-16.4,6.9-19.6c6.5-2.3,11.5-2.3,19.7,0.1c7.4,2.1,8.1,1.9,9.1-3.6
	c0.4-1.9,0.1-3.5-0.6-4.1C337.8,106.5,319.4,105,311.9,106.9z M238.9,109.1c-0.3,0.7-0.4,20.4-0.2,43.8l0.3,42.5h6h6v-43.5v-43.5
	l-5.8-0.3C241.1,107.9,239.3,108.2,238.9,109.1z M264.9,109.1c-0.3,0.7-0.4,20.4-0.2,43.8l0.3,42.5h6h6v-43.5v-43.5l-5.8-0.3
	C267.1,107.9,265.3,108.2,264.9,109.1z"/>
<rect y="5" class="st1" width="100" height="94"/>
<rect x="110" y="5" class="st2" width="100" height="94"/>
<rect x="110" y="109" class="st3" width="100" height="94"/>
<rect y="109" class="st4" width="100" height="94"/>
</svg>
