<?xml version="1.0" encoding="utf-8"?>
<!-- Generator: Adobe Illustrator 24.0.0, SVG Export Plug-In . SVG Version: 6.00 Build 0)  -->
<svg version="1.1" id="Layer_1" xmlns="http://www.w3.org/2000/svg" xmlns:xlink="http://www.w3.org/1999/xlink" x="0px" y="0px"
	 viewBox="0 0 512 512" style="enable-background:new 0 0 512 512;" xml:space="preserve">
<style type="text/css">
	.st0{fill:#FFFFFF;}
	.st1{fill:#53C1DE;}
</style>
<g>
	<path class="st0" d="M128.93,226.76c0,19.21,18.76,37.15,48.34,47.26c-5.91,29.74-1.06,53.71,15.14,63.05
		c16.65,9.6,41.44,2.95,64.98-17.62c22.94,19.74,46.13,27.51,62.31,18.15c16.63-9.63,21.69-35.22,15.62-65.89
		c30.81-10.19,48.04-25.48,48.04-44.95c0-18.77-18.8-35.01-47.98-45.05c6.53-31.93,1-55.32-15.87-65.05
		c-16.26-9.38-39.72-1.2-63,19.06c-24.22-21.5-47.44-28.07-64.29-18.32c-16.24,9.4-20.88,33.81-14.95,64.09
		C148.69,191.46,128.93,208.07,128.93,226.76z"/>
	<path class="st1" d="M328.8,191.69c-2.34-0.81-4.77-1.57-7.27-2.29c0.41-1.68,0.79-3.33,1.12-4.96
		c5.51-26.73,1.91-48.26-10.39-55.35c-11.79-6.8-31.07,0.29-50.54,17.23c-1.87,1.63-3.75,3.35-5.63,5.16
		c-1.25-1.2-2.5-2.35-3.74-3.46c-20.4-18.12-40.86-25.75-53.14-18.64c-11.78,6.82-15.26,27.06-10.31,52.39
		c0.48,2.45,1.04,4.95,1.67,7.49c-2.89,0.82-5.69,1.7-8.36,2.63c-23.92,8.34-39.2,21.41-39.2,34.97c0,14,16.4,28.05,41.32,36.57
		c1.97,0.67,4.01,1.31,6.11,1.91c-0.68,2.75-1.28,5.44-1.77,8.07c-4.73,24.89-1.04,44.65,10.71,51.43c12.13,7,32.49-0.2,52.32-17.53
		c1.57-1.37,3.14-2.82,4.71-4.35c2.04,1.97,4.08,3.83,6.11,5.57c19.2,16.53,38.17,23.2,49.9,16.4
		c12.12-7.02,16.06-28.25,10.94-54.08c-0.39-1.97-0.85-3.99-1.36-6.04c1.43-0.42,2.83-0.86,4.2-1.31
		c25.9-8.58,42.76-22.46,42.76-36.65C368.98,213.25,353.21,200.09,328.8,191.69L328.8,191.69L328.8,191.69z"/>
	<path class="st0" d="M323.58,254.34c-1.24,0.41-2.5,0.8-3.8,1.19c-2.86-9.05-6.72-18.68-11.44-28.63c4.51-9.71,8.22-19.21,11-28.21
		c2.31,0.67,4.55,1.37,6.72,2.12c20.91,7.2,33.66,17.84,33.66,26.04C359.72,235.59,345.95,246.93,323.58,254.34L323.58,254.34
		L323.58,254.34z M314.3,272.73c2.26,11.42,2.58,21.75,1.09,29.82c-1.35,7.25-4.05,12.09-7.4,14.03
		c-7.12,4.12-22.35-1.24-38.77-15.37c-1.88-1.62-3.78-3.35-5.68-5.18c6.37-6.96,12.73-15.06,18.94-24.05
		c10.92-0.97,21.24-2.55,30.6-4.72C313.54,269.12,313.95,270.95,314.3,272.73L314.3,272.73L314.3,272.73z M220.45,315.87
		c-6.96,2.46-12.5,2.53-15.85,0.6c-7.13-4.11-10.09-19.98-6.05-41.27c0.46-2.44,1.01-4.94,1.65-7.5c9.26,2.05,19.5,3.52,30.45,4.41
		c6.25,8.8,12.8,16.88,19.4,23.96c-1.44,1.39-2.88,2.72-4.31,3.96C236.98,307.69,228.19,313.13,220.45,315.87L220.45,315.87
		L220.45,315.87z M187.86,254.29c-11.02-3.77-20.12-8.66-26.35-14c-5.6-4.8-8.43-9.56-8.43-13.43c0-8.23,12.27-18.72,32.73-25.86
		c2.48-0.87,5.08-1.68,7.78-2.45c2.83,9.2,6.54,18.81,11.01,28.54c-4.53,9.87-8.3,19.64-11.15,28.94
		C191.51,255.48,189.65,254.9,187.86,254.29L187.86,254.29L187.86,254.29z M198.78,179.92c-4.25-21.7-1.43-38.07,5.67-42.18
		c7.56-4.38,24.28,1.86,41.89,17.51c1.13,1,2.26,2.05,3.39,3.13c-6.57,7.05-13.05,15.07-19.25,23.82
		c-10.63,0.98-20.8,2.57-30.15,4.69C199.75,184.51,199.23,182.19,198.78,179.92L198.78,179.92L198.78,179.92z M296.25,203.98
		c-2.24-3.86-4.53-7.63-6.87-11.3c7.21,0.91,14.12,2.12,20.6,3.6c-1.95,6.24-4.37,12.77-7.23,19.46
		C300.7,211.85,298.53,207.93,296.25,203.98L296.25,203.98L296.25,203.98z M256.5,165.27c4.45,4.82,8.91,10.21,13.3,16.05
		c-4.42-0.21-8.89-0.32-13.4-0.32c-4.47,0-8.91,0.11-13.3,0.31C247.48,175.53,251.98,170.15,256.5,165.27L256.5,165.27L256.5,165.27
		z M216.5,204.05c-2.23,3.87-4.36,7.77-6.38,11.68c-2.81-6.67-5.22-13.22-7.18-19.55c6.45-1.44,13.32-2.62,20.49-3.52
		C221.06,196.37,218.74,200.17,216.5,204.05L216.5,204.05L216.5,204.05z M223.63,261.73c-7.4-0.83-14.38-1.94-20.82-3.35
		c2-6.44,4.45-13.14,7.32-19.95c2.02,3.91,4.16,7.81,6.41,11.69h0C218.83,254.08,221.2,257.96,223.63,261.73L223.63,261.73
		L223.63,261.73z M256.77,289.12c-4.58-4.94-9.14-10.4-13.6-16.27c4.33,0.17,8.74,0.26,13.22,0.26c4.61,0,9.16-0.1,13.64-0.3
		C265.64,278.78,261.19,284.25,256.77,289.12L256.77,289.12L256.77,289.12z M302.84,238.09c3.02,6.88,5.57,13.54,7.59,19.88
		c-6.55,1.49-13.62,2.7-21.08,3.59c2.35-3.72,4.66-7.55,6.94-11.5C298.59,246.07,300.78,242.07,302.84,238.09L302.84,238.09
		L302.84,238.09z M287.93,245.24c-3.53,6.12-7.16,11.97-10.84,17.49c-6.71,0.48-13.63,0.73-20.69,0.73
		c-7.03,0-13.87-0.22-20.46-0.65c-3.83-5.59-7.53-11.45-11.04-17.52h0c-3.5-6.05-6.72-12.14-9.64-18.21
		c2.92-6.08,6.13-12.18,9.61-18.22l0,0c3.49-6.05,7.16-11.89,10.96-17.44c6.72-0.51,13.61-0.77,20.57-0.77h0
		c7,0,13.9,0.27,20.61,0.78c3.74,5.52,7.38,11.33,10.89,17.38c3.54,6.12,6.8,12.18,9.74,18.13
		C294.7,233,291.45,239.12,287.93,245.24L287.93,245.24L287.93,245.24z M307.84,137.45c7.57,4.36,10.51,21.96,5.76,45.04
		c-0.3,1.47-0.64,2.97-1.02,4.49c-9.37-2.16-19.55-3.77-30.21-4.77c-6.21-8.84-12.64-16.88-19.1-23.84c1.74-1.67,3.47-3.26,5.2-4.77
		C285.14,139.08,300.74,133.35,307.84,137.45L307.84,137.45L307.84,137.45z"/>
	<path class="st1" d="M256.4,206.68c11.14,0,20.18,9.03,20.18,20.18c0,11.14-9.03,20.18-20.18,20.18s-20.18-9.03-20.18-20.18
		C236.22,215.71,245.25,206.68,256.4,206.68"/>
	<g>
		<path class="st1" d="M126.15,374.24v12.06h-6.67v-31.44h9.16c4.27,0,7.43,0.78,9.48,2.33c2.05,1.56,3.08,3.92,3.08,7.09
			c0,1.85-0.51,3.49-1.53,4.94c-1.02,1.44-2.46,2.57-4.32,3.39c4.73,7.07,7.81,11.63,9.25,13.7h-7.4l-7.51-12.06H126.15z
			 M126.15,368.82h2.15c2.11,0,3.66-0.35,4.67-1.05c1-0.7,1.51-1.81,1.51-3.31c0-1.49-0.51-2.55-1.54-3.18
			c-1.02-0.63-2.61-0.95-4.76-0.95h-2.02V368.82z"/>
		<path class="st1" d="M158.92,386.73c-3.87,0-6.9-1.07-9.08-3.2c-2.18-2.14-3.27-5.16-3.27-9.08c0-4.03,1.01-7.14,3.02-9.34
			c2.01-2.2,4.8-3.3,8.36-3.3c3.4,0,6.04,0.97,7.94,2.9s2.84,4.61,2.84,8.02v3.18h-15.51c0.07,1.86,0.62,3.32,1.66,4.37
			s2.48,1.57,4.34,1.57c1.45,0,2.82-0.15,4.11-0.45c1.29-0.3,2.64-0.78,4.04-1.44v5.08c-1.15,0.57-2.37,1-3.68,1.28
			C162.39,386.59,160.8,386.73,158.92,386.73z M158,366.47c-1.39,0-2.48,0.44-3.27,1.32c-0.79,0.88-1.24,2.13-1.36,3.75h9.21
			c-0.03-1.62-0.45-2.87-1.27-3.75S159.39,366.47,158,366.47z"/>
		<path class="st1" d="M189.33,386.3l-1.27-3.27h-0.17c-1.1,1.39-2.24,2.35-3.41,2.89c-1.17,0.54-2.69,0.81-4.57,0.81
			c-2.31,0-4.13-0.66-5.45-1.98c-1.33-1.32-1.99-3.2-1.99-5.63c0-2.55,0.89-4.43,2.68-5.65c1.79-1.21,4.48-1.88,8.08-2.01l4.17-0.13
			v-1.05c0-2.44-1.25-3.66-3.74-3.66c-1.92,0-4.18,0.58-6.77,1.74l-2.17-4.43c2.77-1.45,5.83-2.17,9.2-2.17
			c3.23,0,5.7,0.7,7.42,2.11c1.72,1.41,2.58,3.54,2.58,6.41v16.02H189.33z M187.4,375.16l-2.54,0.09c-1.91,0.06-3.33,0.4-4.26,1.03
			c-0.93,0.63-1.4,1.59-1.4,2.88c0,1.85,1.06,2.77,3.18,2.77c1.52,0,2.73-0.44,3.64-1.31c0.91-0.87,1.37-2.04,1.37-3.48V375.16z"/>
		<path class="st1" d="M210.43,386.73c-7.48,0-11.23-4.11-11.23-12.32c0-4.09,1.02-7.21,3.05-9.37c2.04-2.16,4.95-3.24,8.75-3.24
			c2.78,0,5.28,0.54,7.48,1.63l-1.94,5.08c-1.03-0.42-1.99-0.76-2.88-1.02c-0.89-0.27-1.78-0.4-2.67-0.4
			c-3.41,0-5.12,2.42-5.12,7.27c0,4.7,1.71,7.05,5.12,7.05c1.26,0,2.43-0.17,3.5-0.5s2.15-0.86,3.23-1.58v5.61
			c-1.06,0.67-2.13,1.14-3.22,1.4C213.44,386.6,212.08,386.73,210.43,386.73z"/>
		<path class="st1" d="M233.44,381.5c1.15,0,2.52-0.25,4.13-0.75v4.88c-1.63,0.73-3.64,1.1-6.02,1.1c-2.62,0-4.54-0.66-5.73-1.99
			c-1.2-1.33-1.8-3.31-1.8-5.97v-11.59h-3.14v-2.77l3.61-2.19l1.89-5.08h4.19v5.12h6.73v4.92h-6.73v11.59
			c0,0.93,0.26,1.62,0.78,2.06C231.89,381.28,232.58,381.5,233.44,381.5z"/>
		<path class="st1" d="M282.28,386.3h-8.47l-13.68-23.79h-0.19c0.27,4.2,0.41,7.2,0.41,8.99v14.8h-5.96v-31.44h8.41l13.66,23.55
			h0.15c-0.22-4.09-0.32-6.97-0.32-8.67v-14.88h6V386.3z"/>
		<path class="st1" d="M304.95,386.3l-1.27-3.27h-0.17c-1.1,1.39-2.24,2.35-3.41,2.89c-1.17,0.54-2.69,0.81-4.57,0.81
			c-2.31,0-4.13-0.66-5.45-1.98c-1.33-1.32-1.99-3.2-1.99-5.63c0-2.55,0.89-4.43,2.68-5.65c1.78-1.21,4.48-1.88,8.08-2.01l4.17-0.13
			v-1.05c0-2.44-1.25-3.66-3.74-3.66c-1.92,0-4.18,0.58-6.77,1.74l-2.17-4.43c2.77-1.45,5.83-2.17,9.2-2.17
			c3.23,0,5.7,0.7,7.42,2.11c1.72,1.41,2.58,3.54,2.58,6.41v16.02H304.95z M303.01,375.16l-2.54,0.09c-1.91,0.06-3.33,0.4-4.26,1.03
			s-1.4,1.59-1.4,2.88c0,1.85,1.06,2.77,3.18,2.77c1.52,0,2.73-0.44,3.65-1.31c0.91-0.87,1.37-2.04,1.37-3.48V375.16z"/>
		<path class="st1" d="M326.41,381.5c1.15,0,2.52-0.25,4.13-0.75v4.88c-1.63,0.73-3.64,1.1-6.02,1.1c-2.62,0-4.53-0.66-5.73-1.99
			c-1.2-1.33-1.8-3.31-1.8-5.97v-11.59h-3.14v-2.77l3.61-2.19l1.89-5.08h4.19v5.12h6.73v4.92h-6.73v11.59
			c0,0.93,0.26,1.62,0.79,2.06C324.86,381.28,325.55,381.5,326.41,381.5z"/>
		<path class="st1" d="M335.12,356.04c0-2.14,1.19-3.2,3.57-3.2s3.57,1.07,3.57,3.2c0,1.02-0.3,1.81-0.89,2.38
			c-0.6,0.57-1.49,0.85-2.68,0.85C336.31,359.27,335.12,358.19,335.12,356.04z M341.96,386.3h-6.56v-24.04h6.56V386.3z"/>
		<path class="st1" d="M354.56,386.3l-9.16-24.04h6.86l4.65,13.7c0.52,1.74,0.84,3.38,0.97,4.92H358c0.07-1.38,0.39-3.02,0.97-4.92
			l4.62-13.7h6.86l-9.16,24.04H354.56z"/>
		<path class="st1" d="M384.78,386.73c-3.87,0-6.9-1.07-9.08-3.2c-2.18-2.14-3.27-5.16-3.27-9.08c0-4.03,1.01-7.14,3.02-9.34
			c2.01-2.2,4.8-3.3,8.36-3.3c3.4,0,6.04,0.97,7.94,2.9s2.84,4.61,2.84,8.02v3.18h-15.51c0.07,1.86,0.62,3.32,1.66,4.37
			s2.48,1.57,4.34,1.57c1.45,0,2.82-0.15,4.11-0.45s2.64-0.78,4.04-1.44v5.08c-1.15,0.57-2.37,1-3.68,1.28
			S386.66,386.73,384.78,386.73z M383.85,366.47c-1.39,0-2.48,0.44-3.27,1.32c-0.79,0.88-1.24,2.13-1.35,3.75h9.2
			c-0.03-1.62-0.45-2.87-1.27-3.75S385.24,366.47,383.85,366.47z"/>
	</g>
</g>
</svg>
