<?xml version="1.0" encoding="UTF-8" standalone="no"?>
<!-- Created with Inkscape (http://www.inkscape.org/) -->

<svg
   xmlns:dc="http://purl.org/dc/elements/1.1/"
   xmlns:cc="http://creativecommons.org/ns#"
   xmlns:rdf="http://www.w3.org/1999/02/22-rdf-syntax-ns#"
   xmlns:svg="http://www.w3.org/2000/svg"
   xmlns="http://www.w3.org/2000/svg"
   xmlns:sodipodi="http://sodipodi.sourceforge.net/DTD/sodipodi-0.dtd"
   xmlns:inkscape="http://www.inkscape.org/namespaces/inkscape"
   version="1.1"
   id="svg29131"
   xml:space="preserve"
   width="666.66669"
   height="666.66669"
   viewBox="0 0 666.66669 666.66669"
   sodipodi:docname="Venezuela-sticker-2-publicdomainvectors.org.svg"
   inkscape:version="0.92.4 (5da689c313, 2019-01-14)"><metadata
     id="metadata29137"><rdf:RDF><cc:Work
         rdf:about=""><dc:format>image/svg+xml</dc:format><dc:type
           rdf:resource="http://purl.org/dc/dcmitype/StillImage" /><dc:title></dc:title></cc:Work></rdf:RDF></metadata><defs
     id="defs29135"><clipPath
       clipPathUnits="userSpaceOnUse"
       id="clipPath29147"><path
         d="M 0,500 H 500 V 0 H 0 Z"
         id="path29145"
         inkscape:connector-curvature="0" /></clipPath><radialGradient
       fx="0"
       fy="0"
       cx="0"
       cy="0"
       r="1"
       gradientUnits="userSpaceOnUse"
       gradientTransform="matrix(189.68654,0,0,-189.68654,259.30859,278.23828)"
       spreadMethod="pad"
       id="radialGradient29167"><stop
         style="stop-opacity:1;stop-color:#ffffff"
         offset="0"
         id="stop29161" /><stop
         style="stop-opacity:1;stop-color:#ffffff"
         offset="0.79908746"
         id="stop29163" /><stop
         style="stop-opacity:1;stop-color:#eff0f0"
         offset="1"
         id="stop29165" /></radialGradient></defs><sodipodi:namedview
     pagecolor="#ffffff"
     bordercolor="#666666"
     borderopacity="1"
     objecttolerance="10"
     gridtolerance="10"
     guidetolerance="10"
     inkscape:pageopacity="0"
     inkscape:pageshadow="2"
     inkscape:window-width="724"
     inkscape:window-height="480"
     id="namedview29133"
     showgrid="false"
     inkscape:zoom="0.35399999"
     inkscape:cx="333.33334"
     inkscape:cy="333.33334"
     inkscape:window-x="0"
     inkscape:window-y="0"
     inkscape:window-maximized="0"
     inkscape:current-layer="g29139" /><g
     id="g29139"
     inkscape:groupmode="layer"
     inkscape:label="Venezuela-sticker-2-publicdomainvectors.org"
     transform="matrix(1.3333333,0,0,-1.3333333,0,666.66667)"><g
       id="g29141"><g
         id="g29143"
         clip-path="url(#clipPath29147)"><g
           id="g29149"><g
             id="g29151"><g
               id="g29157"><g
                 id="g29159"><path
                   d="m 82.827,278.236 c 0,-19.931 -13.562,-41.81 -7.703,-59.818 6.088,-18.645 30.152,-28.303 41.457,-43.846 11.453,-15.697 13.253,-41.506 28.966,-52.931 15.517,-11.307 40.587,-5.162 59.237,-11.252 18.024,-5.858 34.568,-25.787 54.551,-25.787 19.934,0 36.47,19.929 54.503,25.787 18.648,6.09 43.712,-0.055 59.256,11.252 15.691,11.425 17.542,37.234 28.946,52.931 11.298,15.543 35.391,25.201 41.454,43.846 5.854,18.008 -7.705,39.887 -7.705,59.818 0,19.959 13.559,41.842 7.705,59.85 -6.063,18.646 -30.156,28.304 -41.454,43.839 -11.404,15.67 -13.255,41.486 -28.946,52.912 -15.544,11.323 -40.608,5.188 -59.256,11.251 -18.033,5.882 -34.569,25.787 -54.503,25.787 -19.983,0 -36.527,-19.905 -54.551,-25.787 -18.65,-6.063 -43.72,0.072 -59.237,-11.251 -15.713,-11.426 -17.513,-37.242 -28.966,-52.912 -11.305,-15.535 -35.37,-25.193 -41.457,-43.839 -5.859,-18.008 7.703,-39.891 7.703,-59.85"
                   style="fill:url(#radialGradient29167);stroke:none"
                   id="path29169"
                   inkscape:connector-curvature="0" /></g></g></g></g><path
           d="m 407.063,348.402 c -7.375,5.872 -15.735,12.525 -22.019,21.166 -6.335,8.704 -10.133,18.755 -13.481,27.621 -3.268,8.658 -6.651,17.608 -10.839,20.661 -4.085,2.976 -13.587,3.444 -22.774,3.898 -9.505,0.467 -20.28,0.996 -30.613,4.359 -10.011,3.264 -18.796,9.084 -26.549,14.219 -7.816,5.179 -15.902,10.534 -21.453,10.534 -5.595,0 -13.695,-5.366 -21.533,-10.552 -7.741,-5.127 -16.52,-10.94 -26.501,-14.194 l -0.016,-0.01 c -10.335,-3.36 -21.108,-3.889 -30.614,-4.356 -9.181,-0.454 -18.673,-0.922 -22.736,-3.885 -4.207,-3.062 -7.577,-11.986 -10.835,-20.62 -3.358,-8.892 -7.165,-18.973 -13.552,-27.716 -6.26,-8.6 -14.614,-15.253 -21.985,-21.117 -0.754,-0.601 -1.51,-1.204 -2.263,-1.808 h 300.022 c -0.751,0.601 -1.505,1.202 -2.259,1.8"
           style="fill:#ffcc00;fill-opacity:1;fill-rule:nonzero;stroke:none"
           id="path29171"
           inkscape:connector-curvature="0" /><path
           d="m 109.3,346.602 c -6.516,-5.226 -12.721,-10.511 -14.199,-15.04 -1.482,-4.554 1.082,-14.027 3.354,-22.384 2.524,-9.306 5.385,-19.855 5.385,-30.942 0,-11.071 -2.86,-21.61 -5.382,-30.912 -2.269,-8.357 -4.84,-17.828 -3.351,-22.402 1.119,-3.426 4.967,-7.297 9.605,-11.248 h 309.204 c 4.636,3.949 8.48,7.818 9.597,11.246 1.486,4.57 -1.082,14.043 -3.355,22.4 -2.524,9.302 -5.384,19.84 -5.384,30.916 0,11.087 2.86,21.639 5.386,30.949 2.267,8.357 4.839,17.83 3.351,22.405 -1.469,4.511 -7.673,9.794 -14.189,15.012 z"
           style="fill:#00247d;fill-opacity:1;fill-rule:nonzero;stroke:none"
           id="path29173"
           inkscape:connector-curvature="0" /><path
           d="m 111.56,208.1 c 7.374,-5.871 15.73,-12.522 22.015,-21.166 6.363,-8.721 10.167,-18.801 13.522,-27.69 3.259,-8.64 6.63,-17.57 10.809,-20.609 4.071,-2.963 13.55,-3.43 22.719,-3.885 9.526,-0.471 20.325,-1.004 30.681,-4.383 9.979,-3.244 18.769,-9.068 26.526,-14.205 7.827,-5.185 15.922,-10.545 21.503,-10.545 5.541,0 13.616,5.348 21.425,10.528 7.767,5.144 16.566,10.974 26.584,14.232 10.327,3.369 21.127,3.902 30.652,4.373 9.176,0.455 18.661,0.922 22.737,3.885 4.18,3.045 7.564,12.002 10.832,20.666 3.349,8.861 7.142,18.91 13.479,27.627 6.283,8.644 14.644,15.301 22.024,21.172 2.325,1.851 4.671,3.72 6.848,5.574 H 104.712 c 2.176,-1.854 4.523,-3.725 6.848,-5.574"
           style="fill:#cf142b;fill-opacity:1;fill-rule:nonzero;stroke:none"
           id="path29175"
           inkscape:connector-curvature="0" /><path
           d="m 129.73,248.117 15.712,-12.275 6.139,7.857"
           style="fill:#ffffff;fill-opacity:1;fill-rule:nonzero;stroke:none"
           id="path29177"
           inkscape:connector-curvature="0" /><path
           d="m 129.73,248.117 19.927,-0.695 -0.348,-9.963"
           style="fill:#ffffff;fill-opacity:1;fill-rule:nonzero;stroke:none"
           id="path29179"
           inkscape:connector-curvature="0" /><path
           d="m 149.163,261.226 -6.82,-18.738 9.368,-3.41"
           style="fill:#ffffff;fill-opacity:1;fill-rule:nonzero;stroke:none"
           id="path29181"
           inkscape:connector-curvature="0" /><path
           d="m 149.163,261.226 5.496,-19.167 -9.584,-2.748"
           style="fill:#ffffff;fill-opacity:1;fill-rule:nonzero;stroke:none"
           id="path29183"
           inkscape:connector-curvature="0" /><path
           d="m 167.634,246.795 -19.927,0.695 -0.349,-9.963"
           style="fill:#ffffff;fill-opacity:1;fill-rule:nonzero;stroke:none"
           id="path29185"
           inkscape:connector-curvature="0" /><path
           d="m 167.634,246.795 -16.53,-11.15 -5.576,8.265"
           style="fill:#ffffff;fill-opacity:1;fill-rule:nonzero;stroke:none"
           id="path29187"
           inkscape:connector-curvature="0" /><path
           d="m 159.617,224.77 -5.496,19.166 -9.584,-2.748"
           style="fill:#ffffff;fill-opacity:1;fill-rule:nonzero;stroke:none"
           id="path29189"
           inkscape:connector-curvature="0" /><path
           d="m 159.617,224.77 -15.713,12.273 6.138,7.857"
           style="fill:#ffffff;fill-opacity:1;fill-rule:nonzero;stroke:none"
           id="path29191"
           inkscape:connector-curvature="0" /><path
           d="m 136.191,225.586 16.531,11.15 -5.576,8.266"
           style="fill:#ffffff;fill-opacity:1;fill-rule:nonzero;stroke:none"
           id="path29193"
           inkscape:connector-curvature="0" /><path
           d="m 136.191,225.586 6.82,18.738 9.368,-3.412"
           style="fill:#ffffff;fill-opacity:1;fill-rule:nonzero;stroke:none"
           id="path29195"
           inkscape:connector-curvature="0" /><path
           d="m 153.967,290.098 10.566,-16.91 8.455,5.283"
           style="fill:#ffffff;fill-opacity:1;fill-rule:nonzero;stroke:none"
           id="path29197"
           inkscape:connector-curvature="0" /><path
           d="m 153.967,290.098 18.488,-7.471 -3.735,-9.243"
           style="fill:#ffffff;fill-opacity:1;fill-rule:nonzero;stroke:none"
           id="path29199"
           inkscape:connector-curvature="0" /><path
           d="m 176.711,295.768 -12.817,-15.274 7.638,-6.409"
           style="fill:#ffffff;fill-opacity:1;fill-rule:nonzero;stroke:none"
           id="path29201"
           inkscape:connector-curvature="0" /><path
           d="m 176.711,295.768 -1.391,-19.891 -9.946,0.696"
           style="fill:#ffffff;fill-opacity:1;fill-rule:nonzero;stroke:none"
           id="path29203"
           inkscape:connector-curvature="0" /><path
           d="m 189.132,275.89 -18.487,7.469 -3.735,-9.244"
           style="fill:#ffffff;fill-opacity:1;fill-rule:nonzero;stroke:none"
           id="path29205"
           inkscape:connector-curvature="0" /><path
           d="m 189.132,275.89 -19.347,-4.824 -2.412,9.674"
           style="fill:#ffffff;fill-opacity:1;fill-rule:nonzero;stroke:none"
           id="path29207"
           inkscape:connector-curvature="0" /><path
           d="m 174.065,257.934 1.391,19.89 -9.945,0.696"
           style="fill:#ffffff;fill-opacity:1;fill-rule:nonzero;stroke:none"
           id="path29209"
           inkscape:connector-curvature="0" /><path
           d="m 174.065,257.934 -10.566,16.909 8.455,5.283"
           style="fill:#ffffff;fill-opacity:1;fill-rule:nonzero;stroke:none"
           id="path29211"
           inkscape:connector-curvature="0" /><path
           d="m 152.332,266.715 19.347,4.824 -2.412,9.672"
           style="fill:#ffffff;fill-opacity:1;fill-rule:nonzero;stroke:none"
           id="path29213"
           inkscape:connector-curvature="0" /><path
           d="m 152.332,266.715 12.816,15.274 7.638,-6.408"
           style="fill:#ffffff;fill-opacity:1;fill-rule:nonzero;stroke:none"
           id="path29215"
           inkscape:connector-curvature="0" /><path
           d="m 191.1,321.256 4.146,-19.504 9.751,2.073"
           style="fill:#ffffff;fill-opacity:1;fill-rule:nonzero;stroke:none"
           id="path29217"
           inkscape:connector-curvature="0" /><path
           d="m 191.1,321.256 14.818,-13.342 -6.67,-7.409"
           style="fill:#ffffff;fill-opacity:1;fill-rule:nonzero;stroke:none"
           id="path29219"
           inkscape:connector-curvature="0" /><path
           d="m 214.413,318.805 -17.269,-9.97 4.984,-8.633"
           style="fill:#ffffff;fill-opacity:1;fill-rule:nonzero;stroke:none"
           id="path29221"
           inkscape:connector-curvature="0" /><path
           d="m 214.413,318.805 -8.111,-18.215 -9.108,4.055"
           style="fill:#ffffff;fill-opacity:1;fill-rule:nonzero;stroke:none"
           id="path29223"
           inkscape:connector-curvature="0" /><path
           d="m 219.285,295.878 -14.817,13.342 -6.671,-7.409"
           style="fill:#ffffff;fill-opacity:1;fill-rule:nonzero;stroke:none"
           id="path29225"
           inkscape:connector-curvature="0" /><path
           d="m 219.285,295.878 -19.83,2.084 1.042,9.915"
           style="fill:#ffffff;fill-opacity:1;fill-rule:nonzero;stroke:none"
           id="path29227"
           inkscape:connector-curvature="0" /><path
           d="m 198.986,284.158 8.11,18.216 -9.108,4.054"
           style="fill:#ffffff;fill-opacity:1;fill-rule:nonzero;stroke:none"
           id="path29229"
           inkscape:connector-curvature="0" /><path
           d="m 198.986,284.158 -4.146,19.504 9.751,2.072"
           style="fill:#ffffff;fill-opacity:1;fill-rule:nonzero;stroke:none"
           id="path29231"
           inkscape:connector-curvature="0" /><path
           d="m 181.566,299.842 19.83,-2.085 1.042,9.916"
           style="fill:#ffffff;fill-opacity:1;fill-rule:nonzero;stroke:none"
           id="path29233"
           inkscape:connector-curvature="0" /><path
           d="m 181.566,299.842 17.268,9.97 4.985,-8.634"
           style="fill:#ffffff;fill-opacity:1;fill-rule:nonzero;stroke:none"
           id="path29235"
           inkscape:connector-curvature="0" /><path
           d="m 236.651,337.835 -2.775,-19.746 9.872,-1.387"
           style="fill:#ffffff;fill-opacity:1;fill-rule:nonzero;stroke:none"
           id="path29237"
           inkscape:connector-curvature="0" /><path
           d="m 236.651,337.835 9.36,-17.606 -8.802,-4.68"
           style="fill:#ffffff;fill-opacity:1;fill-rule:nonzero;stroke:none"
           id="path29239"
           inkscape:connector-curvature="0" /><path
           d="m 257.719,327.559 -19.636,-3.462 1.73,-9.818"
           style="fill:#ffffff;fill-opacity:1;fill-rule:nonzero;stroke:none"
           id="path29241"
           inkscape:connector-curvature="0" /><path
           d="m 257.719,327.559 -13.851,-14.343 -7.172,6.926"
           style="fill:#ffffff;fill-opacity:1;fill-rule:nonzero;stroke:none"
           id="path29243"
           inkscape:connector-curvature="0" /><path
           d="m 254.456,304.347 -9.361,17.606 -8.802,-4.681"
           style="fill:#ffffff;fill-opacity:1;fill-rule:nonzero;stroke:none"
           id="path29245"
           inkscape:connector-curvature="0" /><path
           d="m 254.456,304.347 -17.921,8.741 4.37,8.961"
           style="fill:#ffffff;fill-opacity:1;fill-rule:nonzero;stroke:none"
           id="path29247"
           inkscape:connector-curvature="0" /><path
           d="m 231.372,300.278 13.852,14.343 -7.173,6.925"
           style="fill:#ffffff;fill-opacity:1;fill-rule:nonzero;stroke:none"
           id="path29249"
           inkscape:connector-curvature="0" /><path
           d="m 231.372,300.278 2.775,19.744 9.873,-1.388"
           style="fill:#ffffff;fill-opacity:1;fill-rule:nonzero;stroke:none"
           id="path29251"
           inkscape:connector-curvature="0" /><path
           d="m 220.368,320.974 17.921,-8.742 4.37,8.961"
           style="fill:#ffffff;fill-opacity:1;fill-rule:nonzero;stroke:none"
           id="path29253"
           inkscape:connector-curvature="0" /><path
           d="m 220.368,320.974 19.636,3.462 1.731,-9.818"
           style="fill:#ffffff;fill-opacity:1;fill-rule:nonzero;stroke:none"
           id="path29255"
           inkscape:connector-curvature="0" /><path
           d="m 285.124,337.835 -9.361,-17.606 8.802,-4.68"
           style="fill:#ffffff;fill-opacity:1;fill-rule:nonzero;stroke:none"
           id="path29257"
           inkscape:connector-curvature="0" /><path
           d="m 285.124,337.835 2.776,-19.746 -9.872,-1.387"
           style="fill:#ffffff;fill-opacity:1;fill-rule:nonzero;stroke:none"
           id="path29259"
           inkscape:connector-curvature="0" /><path
           d="m 301.407,320.974 -19.636,3.462 -1.731,-9.818"
           style="fill:#ffffff;fill-opacity:1;fill-rule:nonzero;stroke:none"
           id="path29261"
           inkscape:connector-curvature="0" /><path
           d="m 301.407,320.974 -17.922,-8.742 -4.369,8.961"
           style="fill:#ffffff;fill-opacity:1;fill-rule:nonzero;stroke:none"
           id="path29263"
           inkscape:connector-curvature="0" /><path
           d="m 290.402,300.278 -2.774,19.744 -9.873,-1.388"
           style="fill:#ffffff;fill-opacity:1;fill-rule:nonzero;stroke:none"
           id="path29265"
           inkscape:connector-curvature="0" /><path
           d="m 290.402,300.278 -13.85,14.343 7.172,6.925"
           style="fill:#ffffff;fill-opacity:1;fill-rule:nonzero;stroke:none"
           id="path29267"
           inkscape:connector-curvature="0" /><path
           d="m 267.319,304.347 17.921,8.741 -4.37,8.961"
           style="fill:#ffffff;fill-opacity:1;fill-rule:nonzero;stroke:none"
           id="path29269"
           inkscape:connector-curvature="0" /><path
           d="m 267.319,304.347 9.362,17.606 8.801,-4.681"
           style="fill:#ffffff;fill-opacity:1;fill-rule:nonzero;stroke:none"
           id="path29271"
           inkscape:connector-curvature="0" /><path
           d="m 264.058,327.559 13.849,-14.343 7.173,6.926"
           style="fill:#ffffff;fill-opacity:1;fill-rule:nonzero;stroke:none"
           id="path29273"
           inkscape:connector-curvature="0" /><path
           d="m 264.058,327.559 19.635,-3.462 -1.731,-9.818"
           style="fill:#ffffff;fill-opacity:1;fill-rule:nonzero;stroke:none"
           id="path29275"
           inkscape:connector-curvature="0" /><path
           d="m 330.675,321.256 -14.818,-13.342 6.67,-7.409"
           style="fill:#ffffff;fill-opacity:1;fill-rule:nonzero;stroke:none"
           id="path29277"
           inkscape:connector-curvature="0" /><path
           d="m 330.675,321.256 -4.146,-19.504 -9.752,2.073"
           style="fill:#ffffff;fill-opacity:1;fill-rule:nonzero;stroke:none"
           id="path29279"
           inkscape:connector-curvature="0" /><path
           d="m 340.21,299.842 -17.269,9.97 -4.986,-8.634"
           style="fill:#ffffff;fill-opacity:1;fill-rule:nonzero;stroke:none"
           id="path29281"
           inkscape:connector-curvature="0" /><path
           d="m 340.21,299.842 -19.832,-2.085 -1.041,9.916"
           style="fill:#ffffff;fill-opacity:1;fill-rule:nonzero;stroke:none"
           id="path29283"
           inkscape:connector-curvature="0" /><path
           d="m 322.789,284.158 4.147,19.504 -9.751,2.072"
           style="fill:#ffffff;fill-opacity:1;fill-rule:nonzero;stroke:none"
           id="path29285"
           inkscape:connector-curvature="0" /><path
           d="m 322.789,284.158 -8.108,18.216 9.106,4.054"
           style="fill:#ffffff;fill-opacity:1;fill-rule:nonzero;stroke:none"
           id="path29287"
           inkscape:connector-curvature="0" /><path
           d="m 302.49,295.878 19.831,2.084 -1.044,9.915"
           style="fill:#ffffff;fill-opacity:1;fill-rule:nonzero;stroke:none"
           id="path29289"
           inkscape:connector-curvature="0" /><path
           d="m 302.49,295.878 14.818,13.342 6.67,-7.409"
           style="fill:#ffffff;fill-opacity:1;fill-rule:nonzero;stroke:none"
           id="path29291"
           inkscape:connector-curvature="0" /><path
           d="m 307.362,318.805 8.112,-18.215 9.108,4.055"
           style="fill:#ffffff;fill-opacity:1;fill-rule:nonzero;stroke:none"
           id="path29293"
           inkscape:connector-curvature="0" /><path
           d="m 307.362,318.805 17.27,-9.97 -4.986,-8.633"
           style="fill:#ffffff;fill-opacity:1;fill-rule:nonzero;stroke:none"
           id="path29295"
           inkscape:connector-curvature="0" /><path
           d="m 367.808,290.098 -18.487,-7.471 3.735,-9.243"
           style="fill:#ffffff;fill-opacity:1;fill-rule:nonzero;stroke:none"
           id="path29297"
           inkscape:connector-curvature="0" /><path
           d="m 367.808,290.098 -10.566,-16.91 -8.455,5.283"
           style="fill:#ffffff;fill-opacity:1;fill-rule:nonzero;stroke:none"
           id="path29299"
           inkscape:connector-curvature="0" /><path
           d="m 369.443,266.715 -12.816,15.274 -7.638,-6.408"
           style="fill:#ffffff;fill-opacity:1;fill-rule:nonzero;stroke:none"
           id="path29301"
           inkscape:connector-curvature="0" /><path
           d="m 369.443,266.715 -19.346,4.824 2.411,9.672"
           style="fill:#ffffff;fill-opacity:1;fill-rule:nonzero;stroke:none"
           id="path29303"
           inkscape:connector-curvature="0" /><path
           d="m 347.71,257.934 10.567,16.909 -8.456,5.283"
           style="fill:#ffffff;fill-opacity:1;fill-rule:nonzero;stroke:none"
           id="path29305"
           inkscape:connector-curvature="0" /><path
           d="m 347.71,257.934 -1.39,19.891 9.945,0.695"
           style="fill:#ffffff;fill-opacity:1;fill-rule:nonzero;stroke:none"
           id="path29307"
           inkscape:connector-curvature="0" /><path
           d="m 332.644,275.89 19.347,-4.824 2.411,9.674"
           style="fill:#ffffff;fill-opacity:1;fill-rule:nonzero;stroke:none"
           id="path29309"
           inkscape:connector-curvature="0" /><path
           d="m 332.644,275.89 18.486,7.469 3.735,-9.244"
           style="fill:#ffffff;fill-opacity:1;fill-rule:nonzero;stroke:none"
           id="path29311"
           inkscape:connector-curvature="0" /><path
           d="m 345.063,295.768 1.392,-19.891 9.945,0.696"
           style="fill:#ffffff;fill-opacity:1;fill-rule:nonzero;stroke:none"
           id="path29313"
           inkscape:connector-curvature="0" /><path
           d="m 345.063,295.768 12.819,-15.274 -7.638,-6.409"
           style="fill:#ffffff;fill-opacity:1;fill-rule:nonzero;stroke:none"
           id="path29315"
           inkscape:connector-curvature="0" /><path
           d="m 392.046,248.117 -19.928,-0.695 0.348,-9.963"
           style="fill:#ffffff;fill-opacity:1;fill-rule:nonzero;stroke:none"
           id="path29317"
           inkscape:connector-curvature="0" /><path
           d="m 392.046,248.117 -15.713,-12.275 -6.138,7.857"
           style="fill:#ffffff;fill-opacity:1;fill-rule:nonzero;stroke:none"
           id="path29319"
           inkscape:connector-curvature="0" /><path
           d="m 385.585,225.586 -6.82,18.738 -9.369,-3.412"
           style="fill:#ffffff;fill-opacity:1;fill-rule:nonzero;stroke:none"
           id="path29321"
           inkscape:connector-curvature="0" /><path
           d="m 385.585,225.586 -16.531,11.15 5.575,8.266"
           style="fill:#ffffff;fill-opacity:1;fill-rule:nonzero;stroke:none"
           id="path29323"
           inkscape:connector-curvature="0" /><path
           d="m 362.159,224.77 15.711,12.273 -6.138,7.857"
           style="fill:#ffffff;fill-opacity:1;fill-rule:nonzero;stroke:none"
           id="path29325"
           inkscape:connector-curvature="0" /><path
           d="m 362.159,224.77 5.495,19.166 9.583,-2.748"
           style="fill:#ffffff;fill-opacity:1;fill-rule:nonzero;stroke:none"
           id="path29327"
           inkscape:connector-curvature="0" /><path
           d="m 354.142,246.795 16.53,-11.15 5.575,8.265"
           style="fill:#ffffff;fill-opacity:1;fill-rule:nonzero;stroke:none"
           id="path29329"
           inkscape:connector-curvature="0" /><path
           d="m 354.142,246.795 19.927,0.695 0.348,-9.963"
           style="fill:#ffffff;fill-opacity:1;fill-rule:nonzero;stroke:none"
           id="path29331"
           inkscape:connector-curvature="0" /><path
           d="m 372.613,261.226 -5.497,-19.167 9.584,-2.748"
           style="fill:#ffffff;fill-opacity:1;fill-rule:nonzero;stroke:none"
           id="path29333"
           inkscape:connector-curvature="0" /><path
           d="m 372.613,261.226 6.82,-18.738 -9.37,-3.41"
           style="fill:#ffffff;fill-opacity:1;fill-rule:nonzero;stroke:none"
           id="path29335"
           inkscape:connector-curvature="0" /></g></g></g></svg>