<?xml version="1.0" encoding="UTF-8"?>
<svg width="87px" height="99px" viewBox="0 0 87 99" version="1.1" xmlns="http://www.w3.org/2000/svg" xmlns:xlink="http://www.w3.org/1999/xlink">
    <!-- Generator: Sketch 60 (88103) - https://sketch.com -->
    <title>Logo/Others/C#</title>
    <desc>Created with Sketch.</desc>
    <g id="Design" stroke="none" stroke-width="1" fill="none" fill-rule="evenodd">
        <g id="1.-Home" transform="translate(-166.000000, -5876.000000)">
            <g id="Group-7" transform="translate(136.000000, 5851.000000)">
                <g id="Logo/Others/C#" transform="translate(30.000000, 25.000000)">
                    <g transform="translate(0.000000, -0.000000)" id="Group">
                        <g fill-rule="nonzero">
                            <path d="M86.1227007,28.8679319 C86.1220267,27.2169173 85.7739221,25.7580082 85.0699622,24.5059033 C84.3784707,23.2746497 83.3429185,22.2426801 81.9538698,21.4267439 C70.4879843,14.7204796 59.0109784,8.03472474 47.5487997,1.32162392 C44.4586551,-0.487997531 41.4625291,-0.42202531 38.3952994,1.41357485 C33.8315231,4.14373096 10.9823132,17.422606 4.17354862,21.4229838 C1.36950356,23.0695548 0.00505476216,25.5894885 0.00438079387,28.8648555 C0,42.3515602 0.00438079387,55.837923 0,69.3249695 C0,70.9397508 0.333951287,72.3702883 1.00690862,73.6035928 C1.69873707,74.8721053 2.74877966,75.9324464 4.1698418,76.7668412 C10.9789434,80.767219 33.8311861,94.0450686 38.3939514,96.7759084 C41.4625291,98.612534 44.4586551,98.6781644 47.5498106,96.8678593 C59.0123263,90.1544167 70.4900062,83.4690037 81.9575767,76.7627393 C83.3786388,75.9286864 84.4286814,74.8676616 85.1205098,73.6001746 C85.7924562,72.3668701 86.1270815,70.9363325 86.1270815,69.3212095 C86.1270815,69.3212095 86.1270815,42.3549784 86.1227007,28.8679319" id="Path" fill="#A179DC"></path>
                            <path d="M43.1953015,48.9634808 L1.00690862,73.6035928 C1.69873707,74.8721053 2.74877966,75.9324464 4.1698418,76.7668412 C10.9789434,80.767219 33.8311861,94.0450686 38.3939514,96.7759084 C41.4625291,98.612534 44.4586551,98.6781644 47.5498106,96.8678593 C59.0123263,90.1544167 70.4900062,83.4690037 81.9575767,76.7627393 C83.3786388,75.9286864 84.4286814,74.8676616 85.1205098,73.6001746 L43.1953015,48.9634808" id="Path" fill="#280068"></path>
                            <path d="M86.1227007,28.8679319 C86.1220267,27.2169173 85.7739221,25.7580082 85.0699622,24.5059033 L43.1953015,48.9634808 L85.1205098,73.6001746 C85.7924562,72.3668701 86.1264075,70.9363325 86.1270815,69.3212095 C86.1270815,69.3212095 86.1270815,42.3549784 86.1227007,28.8679319" id="Path" fill="#390091"></path>
                            <path d="M68.0345126,39.7521972 L68.0345126,44.357839 L72.5749305,44.357839 L72.5749305,39.7521972 L74.8451394,39.7521972 L74.8451394,44.357839 L79.3855576,44.357839 L79.3855576,46.6606599 L74.8451394,46.6606599 L74.8451394,51.2663017 L79.3855576,51.2663017 L79.3855576,53.5691226 L74.8451394,53.5691226 L74.8451394,58.1747644 L72.5749305,58.1747644 L72.5749305,53.5691226 L68.0345126,53.5691226 L68.0345126,58.1747644 L65.7643037,58.1747644 L65.7643037,53.5691226 L61.2238858,53.5691226 L61.2238858,51.2663017 L65.7643037,51.2663017 L65.7643037,46.6606599 L61.2238858,46.6606599 L61.2238858,44.357839 L65.7643037,44.357839 L65.7643037,39.7521972 L68.0345126,39.7521972 Z M72.5749305,46.6606599 L68.0345126,46.6606599 L68.0345126,51.2663017 L72.5749305,51.2663017 L72.5749305,46.6606599 Z" id="Shape" fill="#FFFFFF"></path>
                            <path d="M43.2878886,16.6215392 C55.1307822,16.6215392 65.4705887,23.1457127 71.0088142,32.8432086 L70.9547721,32.7498673 L57.0209572,40.8881333 C54.2756634,36.1731345 49.2428648,32.9912627 43.4697357,32.925735 L43.2878886,32.9247034 C34.4839844,32.9247034 27.3464892,40.1643476 27.3464892,49.0947211 C27.3464892,52.0151421 28.1140632,54.7526779 29.4489253,57.1171743 C32.1967271,61.9831394 37.3622927,65.2651217 43.2878886,65.2651217 C49.2500716,65.2651217 54.4450575,61.9414354 57.1789034,57.023436 L57.1124744,57.1414726 L71.0253655,65.3172552 C65.5478911,74.9326405 55.3497366,81.4366781 43.6444936,81.5663121 L43.2878886,81.5682858 C31.4076535,81.5682858 21.0384265,75.003939 15.5141568,65.255174 C12.8172752,60.4959553 11.2742063,54.9784147 11.2742063,49.0947211 C11.2742063,31.1605137 25.6069063,16.6215392 43.2878886,16.6215392 Z" id="Path" fill="#FFFFFF"></path>
                        </g>
                    </g>
                </g>
            </g>
        </g>
    </g>
</svg>