<?xml version="1.0" encoding="UTF-8"?>
<svg width="87px" height="87px" viewBox="0 0 87 87" version="1.1" xmlns="http://www.w3.org/2000/svg" xmlns:xlink="http://www.w3.org/1999/xlink">
    <!-- Generator: Sketch 60 (88103) - https://sketch.com -->
    <title>Logo/Others/Kubernetis</title>
    <desc>Created with Sketch.</desc>
    <g id="Design" stroke="none" stroke-width="1" fill="none" fill-rule="evenodd">
        <g id="1.-Home" transform="translate(-1021.000000, -5882.000000)">
            <g id="Group-12" transform="translate(991.000000, 5851.000000)">
                <g id="Logo/Others/Kubernetis" transform="translate(30.000000, 31.000000)">
                    <g id="Group" transform="translate(0.000000, -0.000000)">
                        <g fill-rule="nonzero">
                            <path d="M27.6936739,85.3802395 C25.6876935,85.3802395 23.7931565,84.459077 22.5115579,82.7894699 L3.00897061,57.7453675 C1.72737201,56.0757608 1.22587691,53.9455726 1.72737201,51.8729574 L8.69258175,20.6110085 C9.13835516,18.5383932 10.4756754,16.8687863 12.3144908,15.9476239 L40.5096598,2.01504273 C41.4012067,1.55446154 42.4041969,1.32417094 43.407187,1.32417094 C44.4101771,1.32417094 45.4131676,1.55446154 46.3047142,2.01504273 L74.4998832,15.8900513 C76.3386988,16.8112137 77.676019,18.4808205 78.1217923,20.5534359 L85.087002,51.8153845 C85.5327756,53.8880001 85.087002,56.0181879 83.8054036,57.6877949 L64.3028162,82.7318974 C63.0212175,84.3439315 61.1266804,85.3226666 59.1207002,85.3226666 L27.6936739,85.3802395 L27.6936739,85.3802395 Z" id="Path" fill="#326DE6"></path>
                            <path d="M43.3514654,2.76348718 C44.1315689,2.76348718 44.9116724,2.93620513 45.6360542,3.28164103 L73.8312233,17.1566496 C75.2799867,17.905094 76.3944203,19.2868376 76.7287505,20.8988718 L83.6939601,52.1608205 C84.0840119,53.8304272 83.6939601,55.5576068 82.6352484,56.8817778 L63.132661,81.9258803 C62.1296709,83.2500513 60.569464,83.9984959 58.9535351,83.9984959 L27.6936739,83.9984959 C26.0777452,83.9984959 24.5175382,83.2500513 23.5145481,81.9258803 L4.0119608,56.8817778 C3.00897061,55.5576068 2.61891886,53.8304272 2.95324893,52.1608205 L9.91845867,20.8988718 C10.3085104,19.229265 11.3672223,17.8475214 12.8159859,17.1566496 L41.011155,3.22406838 C41.7355366,2.93620513 42.571362,2.76348718 43.3514654,2.76348718 L43.3514654,2.76348718 Z M43.3514654,0.0575726495 L43.3514654,0.0575726495 C42.1813102,0.0575726495 41.011155,0.345435897 39.8967214,0.863589742 L11.7015524,14.7961709 C9.47268525,15.8900513 7.91247825,17.905094 7.35526147,20.380718 L0.390051744,51.6426665 C-0.167165034,54.1182906 0.390051744,56.6514873 1.95025872,58.66653 L21.452846,83.7106324 C22.9573313,85.6681026 25.2419201,86.7619831 27.6379522,86.7619831 L58.8978135,86.7619831 C61.2938455,86.7619831 63.5784344,85.6681026 65.0829197,83.7106324 L84.5855071,58.66653 C86.145714,56.7090598 86.7029308,54.1182906 86.145714,51.6426665 L79.1805044,20.380718 C78.6232876,17.905094 77.0630806,15.8900513 74.8342134,14.7961709 L46.7504879,0.863589742 C45.6917758,0.345435897 44.5216206,0.0575726495 43.3514654,0.0575726495 L43.3514654,0.0575726495 L43.3514654,0.0575726495 Z" id="Shape" fill="#FFFFFF"></path>
                            <path d="M71.602356,49.6851967 L71.602356,49.6851967 L71.602356,49.6851967 C71.5466344,49.6851967 71.5466344,49.6851967 71.602356,49.6851967 L71.5466344,49.6851967 C71.4909125,49.6851967 71.435191,49.6851967 71.435191,49.6276238 C71.3237478,49.6276238 71.2123043,49.5700513 71.1008608,49.5700513 C70.7108091,49.5124787 70.3764792,49.4549058 70.0421491,49.4549058 C69.874984,49.4549058 69.7078189,49.4549058 69.4849323,49.3973333 L69.4292107,49.3973333 C68.2590555,49.2821882 67.311787,49.1670428 66.42024,48.8791793 C66.0301883,48.7064617 65.9187448,48.4761708 65.8073016,48.2458802 C65.8073016,48.1883077 65.75158,48.1883077 65.75158,48.1307351 L65.75158,48.1307351 L65.0271981,47.9004446 C65.3615283,45.2521025 65.2500848,42.4886153 64.6371464,39.782701 C64.024208,37.0767863 62.965496,34.5435897 61.5167325,32.2406838 L62.073949,31.7225299 L62.073949,31.6073846 C62.073949,31.3195214 62.1296709,31.0316581 62.3525576,30.7437949 C63.0212175,30.1104957 63.8570429,29.5923419 64.8600331,28.9590427 L64.8600331,28.9590427 C65.0271981,28.8438975 65.1943632,28.7863248 65.3615283,28.6711795 C65.6958581,28.4984615 65.9744667,28.3257436 66.3087965,28.095453 C66.3645184,28.0378803 66.4759616,27.9803077 66.5874051,27.8651624 C66.6431266,27.8075897 66.6988486,27.8075897 66.6988486,27.7500171 L66.6988486,27.7500171 C67.478952,27.0591453 67.6461168,25.9076923 67.0889003,25.1592479 C66.8102917,24.7562393 66.3087965,24.5259487 65.8073016,24.5259487 C65.3615283,24.5259487 64.9714765,24.6986666 64.5814245,24.9865299 L64.5814245,24.9865299 L64.5814245,24.9865299 C64.5257029,25.0441026 64.5257029,25.0441026 64.4699813,25.1016752 C64.3585378,25.1592479 64.3028162,25.2743932 64.1913727,25.3319658 C63.9127645,25.6198291 63.6898778,25.8501197 63.4669912,26.1379829 C63.3555477,26.2531282 63.2441045,26.4258462 63.0769395,26.5409914 L63.0769395,26.5409914 C62.296836,27.4045812 61.5724541,28.095453 60.8480722,28.6136068 C60.6809071,28.7287521 60.5137421,28.7863248 60.346577,28.7863248 C60.2351338,28.7863248 60.1236903,28.7863248 60.0122472,28.7287521 L59.9008037,28.7287521 L59.9008037,28.7287521 L59.2321437,29.1893333 C58.5077618,28.3833162 57.7276583,27.6924444 56.9475549,27.0015727 C53.604254,24.2956581 49.5365716,22.6260513 45.3017241,22.2230427 L45.2460025,21.4745983 C45.1902806,21.4170256 45.1902806,21.4170256 45.134559,21.359453 C44.9673939,21.186735 44.7445073,21.0140171 44.6887857,20.6110085 C44.6330641,19.6898462 44.7445073,18.6535385 44.8559508,17.5020855 L44.8559508,17.4445128 C44.8559508,17.2717949 44.9116724,17.0415043 44.9673939,16.8687863 C45.0231159,16.5233504 45.0788374,16.1779145 45.134559,15.774906 L45.134559,15.4294701 L45.134559,15.2567521 L45.134559,15.2567521 L45.134559,15.2567521 C45.134559,14.2204444 44.3544555,13.3568547 43.407187,13.3568547 C42.9614137,13.3568547 42.5156404,13.5871453 42.1813102,13.9325812 C41.8469801,14.2780171 41.679815,14.7385983 41.679815,15.2567521 L41.679815,15.2567521 L41.679815,15.2567521 L41.679815,15.3718974 L41.679815,15.7173333 C41.679815,16.1203419 41.7355366,16.4657778 41.8469801,16.8112137 C41.9027016,16.9839316 41.9027016,17.1566496 41.9584236,17.3869402 L41.9584236,17.4445128 C42.0698667,18.5959658 42.2370318,19.6322735 42.1255883,20.5534359 C42.0698667,20.9564445 41.8469801,21.1291624 41.679815,21.3018803 C41.6240934,21.359453 41.6240934,21.359453 41.5683718,21.4170256 L41.5683718,21.4170256 L41.5126499,22.1654701 C40.5096598,22.2806154 39.5066697,22.3957607 38.5036795,22.6260513 C34.2131101,23.6047863 30.4240361,25.8501197 27.4707872,29.074188 L26.9135704,28.6711795 L26.802127,28.6711795 C26.6906837,28.6711795 26.5792403,28.7287521 26.467797,28.7287521 C26.3006319,28.7287521 26.1334669,28.6711795 25.9663019,28.5560342 C25.2419201,28.0378803 24.5175382,27.2894359 23.7374348,26.4258462 L23.7374348,26.4258462 C23.6259914,26.3107009 23.5145481,26.1379829 23.347383,26.0228376 C23.1244963,25.7349744 22.9016096,25.5046838 22.6230012,25.2168205 C22.5672795,25.1592479 22.4558362,25.1016752 22.3443928,24.9865299 C22.2886711,24.9289573 22.2329495,24.9289573 22.2329495,24.8713846 L22.2329495,24.8713846 C21.8986194,24.5835214 21.452846,24.4108034 21.0070726,24.4108034 C20.5055774,24.4108034 20.0040823,24.641094 19.725474,25.0441026 C19.1682572,25.792547 19.3354222,26.944 20.1155257,27.6348718 L20.1155257,27.6348718 L20.1155257,27.6348718 C20.1712474,27.6348718 20.1712474,27.6924444 20.2269691,27.6924444 C20.3384124,27.7500171 20.3941341,27.8651624 20.5055774,27.922735 C20.8399075,28.1530257 21.1185159,28.3257436 21.452846,28.4984615 C21.620011,28.5560342 21.787176,28.6711795 21.9543411,28.7863248 L21.9543411,28.7863248 C22.9573313,29.4196239 23.7931565,29.9377778 24.4618166,30.5710769 C24.740425,30.8589402 24.740425,31.1468034 24.740425,31.4346667 L24.740425,31.549812 L24.740425,31.549812 L25.2976417,32.0679658 C25.1861984,32.2406838 25.074755,32.3558291 25.0190334,32.528547 C22.2329495,37.0767863 21.1742376,42.4310427 21.8986194,47.7277266 L21.1742376,47.9580172 C21.1742376,48.0155897 21.1185159,48.0155897 21.1185159,48.0731622 C21.0070726,48.3034531 20.8399075,48.5337437 20.5055774,48.7064617 C19.6697523,48.9943248 18.6667621,49.1094702 17.4966069,49.2246153 L17.4408852,49.2246153 C17.2737201,49.2246153 17.0508334,49.2246153 16.8836684,49.2821882 C16.5493383,49.2821882 16.2150083,49.3397608 15.8249565,49.3973333 C15.7135132,49.3973333 15.6020698,49.4549058 15.4906264,49.4549058 C15.4349048,49.4549058 15.3791831,49.4549058 15.3234614,49.5124787 L15.3234614,49.5124787 L15.3234614,49.5124787 C14.3204712,49.7427693 13.7075327,50.7215044 13.8746978,51.6426665 C14.0418628,52.4486836 14.7662446,52.9668376 15.6577915,52.9668376 C15.8249565,52.9668376 15.9363999,52.9668376 16.1035649,52.909265 L16.1035649,52.909265 L16.1035649,52.909265 C16.1592866,52.909265 16.2150083,52.909265 16.2150083,52.8516925 C16.3264516,52.8516925 16.437895,52.7941196 16.5493383,52.7941196 C16.9393901,52.6789745 17.2179985,52.563829 17.5523285,52.391111 C17.7194936,52.3335385 17.8866586,52.218393 18.0538236,52.1608205 L18.1095453,52.1608205 C19.1682572,51.757812 20.1155257,51.412376 21.0070726,51.2972309 L21.1185159,51.2972309 C21.452846,51.2972309 21.6757327,51.4699489 21.8428977,51.585094 C21.8986194,51.585094 21.8986194,51.6426665 21.9543411,51.6426665 L21.9543411,51.6426665 L22.7344446,51.5275214 C24.0717648,55.7878973 26.634962,59.5876921 30.0339844,62.3511793 C30.8140878,62.9844788 31.5941913,63.5026324 32.4300165,64.0207864 L32.0956864,64.7692309 C32.0956864,64.8268035 32.1514081,64.8268035 32.1514081,64.884376 C32.2628515,65.1146665 32.3742948,65.40253 32.2628515,65.8055385 C31.9285214,66.6691281 31.4270263,67.5327181 30.8140878,68.5114528 L30.8140878,68.5690257 C30.7026445,68.7417437 30.5912011,68.8568888 30.4797578,69.0296068 C30.2568711,69.3174702 30.0897061,69.6053333 29.8668193,69.9507693 C29.8110976,70.0083419 29.755376,70.1234873 29.6996543,70.2386324 C29.6996543,70.296205 29.6439326,70.3537779 29.6439326,70.3537779 L29.6439326,70.3537779 L29.6439326,70.3537779 C29.1981592,71.3325129 29.5324893,72.4263931 30.3683144,72.8294016 C30.5912011,72.9445471 30.8140878,73.0021196 31.0369746,73.0021196 C31.7056347,73.0021196 32.3742948,72.5415385 32.7086249,71.9082395 L32.7086249,71.9082395 L32.7086249,71.9082395 C32.7086249,71.8506666 32.7643466,71.793094 32.7643466,71.793094 C32.8200683,71.6779486 32.8757899,71.5628035 32.9315116,71.5052309 C33.0986767,71.1022224 33.1543983,70.8143589 33.2658417,70.468923 C33.3215634,70.296205 33.377285,70.1234873 33.4330067,69.9507693 L33.4330067,69.9507693 C33.8230584,68.7993163 34.101667,67.8781537 34.6031619,67.0721367 C34.8260485,66.7267007 35.1046571,66.6691281 35.3275437,66.553983 C35.3832653,66.553983 35.3832653,66.553983 35.4389872,66.4964101 L35.4389872,66.4964101 L35.829039,65.747966 C38.2807925,66.7267007 40.9554331,67.2448547 43.6300737,67.2448547 C45.2460025,67.2448547 46.9176526,67.0721367 48.4778599,66.6691281 C49.48085,66.4388376 50.4281186,66.1509745 51.3753871,65.8055385 L51.7097169,66.4388376 C51.7654388,66.4388376 51.7654388,66.4388376 51.8211604,66.4964101 C52.0997686,66.553983 52.3226556,66.6691281 52.5455423,67.0145641 C52.9913156,67.8205812 53.3256458,68.7993163 53.7156975,69.8931964 L53.7156975,69.9507693 C53.7714191,70.1234873 53.8271407,70.296205 53.8828626,70.468923 C53.9943057,70.8143589 54.0500277,71.1597949 54.2171924,71.5052309 C54.2729143,71.620376 54.3286359,71.6779486 54.3843575,71.793094 C54.3843575,71.8506666 54.4400794,71.9082395 54.4400794,71.9082395 L54.4400794,71.9082395 L54.4400794,71.9082395 C54.7744092,72.5991111 55.4430695,73.0021196 56.1117295,73.0021196 C56.3346165,73.0021196 56.5575031,72.9445471 56.7803898,72.8294016 C57.1704415,72.5991111 57.5047717,72.2536751 57.6162148,71.793094 C57.7276583,71.3325129 57.7276583,70.8143589 57.5047717,70.3537779 L57.5047717,70.3537779 L57.5047717,70.3537779 C57.5047717,70.296205 57.4490498,70.296205 57.4490498,70.2386324 C57.3933282,70.1234873 57.3376066,70.0083419 57.2818847,69.9507693 C57.1147199,69.6053333 56.891833,69.3174702 56.6689463,69.0296068 C56.5575031,68.8568888 56.4460596,68.7417437 56.3346165,68.5690257 L56.3346165,68.5114528 C55.7216778,67.5327181 55.1644609,66.6691281 54.8858527,65.8055385 C54.7744092,65.40253 54.8858527,65.1722394 54.9415743,64.884376 C54.9415743,64.8268035 54.9972962,64.8268035 54.9972962,64.7692309 L54.9972962,64.7692309 L54.7186876,64.0783589 C57.6719364,62.2936068 60.1794122,59.7604101 62.073949,56.6514873 C63.0769395,55.0394531 63.8570429,53.254701 64.4142597,51.4699489 L65.0829197,51.585094 C65.1386413,51.585094 65.1386413,51.5275214 65.1943632,51.5275214 C65.4172499,51.412376 65.5844149,51.239658 65.9187448,51.239658 L66.0301883,51.239658 C66.9217352,51.3548034 67.8690038,51.7002394 68.9277155,52.103248 L68.983437,52.103248 C69.1506021,52.1608205 69.3177672,52.2759659 69.4849323,52.3335385 C69.8192624,52.5062565 70.0978707,52.6214016 70.4879224,52.736547 C70.5993659,52.736547 70.7108091,52.7941196 70.8222526,52.7941196 C70.8779741,52.7941196 70.9336961,52.7941196 70.9894176,52.8516925 L70.9894176,52.8516925 C71.1565827,52.909265 71.2680259,52.909265 71.435191,52.909265 C72.2710163,52.909265 72.9953979,52.3335385 73.2182845,51.585094 C73.2182845,50.8942223 72.6053462,49.9730598 71.602356,49.6851967 L71.602356,49.6851967 Z M45.8032193,46.8641366 L43.3514654,48.0731622 L40.8997115,46.8641366 L40.2867731,44.1582223 L41.9584236,41.9704617 L44.6887857,41.9704617 L46.3604361,44.1582223 L45.8032193,46.8641366 L45.8032193,46.8641366 Z M60.346577,40.8765812 C60.7923506,42.8340513 60.9037938,44.7915214 60.7366287,46.6914186 L52.2112121,44.1582223 C51.4311087,43.9279318 50.9853354,43.1219144 51.1525004,42.3158973 C51.208222,42.0856068 51.3196652,41.8553162 51.4868303,41.6825982 L58.2291532,35.4071796 C59.1764218,37.0192138 59.9008037,38.8615385 60.346577,40.8765812 L60.346577,40.8765812 Z M55.5545127,31.9528205 L48.2549729,37.3070769 C47.6420345,37.7100854 46.8062094,37.5949403 46.3047142,36.9616409 C46.1375491,36.7889232 46.0818276,36.5586324 46.026106,36.3283418 L45.5246107,26.944 C49.3694065,27.4045812 52.8798725,29.1893333 55.5545127,31.9528205 L55.5545127,31.9528205 Z M39.3952262,27.2318632 C40.0081646,27.1167179 40.5653814,27.0015727 41.1783201,26.8864274 L40.6768249,36.0980513 C40.6211033,36.9040683 40.0081646,37.5949403 39.1723395,37.5949403 C38.9494528,37.5949403 38.6708443,37.5373674 38.5036795,37.4222223 L31.0926962,31.9528205 C33.377285,29.5923419 36.2190907,27.9803077 39.3952262,27.2318632 L39.3952262,27.2318632 Z M28.4180557,35.4071796 L35.0489355,41.5098802 C35.6618739,42.0280342 35.7175955,43.0067693 35.2161002,43.6400684 C35.0489355,43.8703589 34.8260485,44.0430769 34.5474403,44.1006494 L25.9105802,46.6914186 C25.5762502,42.7764787 26.4120753,38.8039659 28.4180557,35.4071796 L28.4180557,35.4071796 Z M26.9135704,51.0093674 L35.7733171,49.4549058 C36.4976989,49.3973333 37.1663593,49.9154873 37.3335243,50.6639315 C37.3892459,51.0093674 37.3892459,51.2972309 37.2778024,51.585094 L37.2778024,51.585094 L33.8787803,60.0482736 C30.7583662,57.975658 28.2508907,54.8091623 26.9135704,51.0093674 L26.9135704,51.0093674 Z M47.2519828,62.4663248 C45.9703844,62.7541879 44.6887857,62.9269059 43.3514654,62.9269059 C41.4012067,62.9269059 39.5066697,62.5814702 37.7235761,62.0057437 L42.1255883,53.7728546 C42.571362,53.254701 43.2957438,53.0244101 43.9086822,53.3698461 C44.1872905,53.5425641 44.4101771,53.7728546 44.5773422,54.0031452 L44.5773422,54.0031452 L48.8679116,62.0057437 C48.3664164,62.1784617 47.8091996,62.2936068 47.2519828,62.4663248 L47.2519828,62.4663248 Z M58.1177101,54.4637266 C56.7246682,56.7666324 54.8858527,58.6089574 52.768429,60.0482736 L49.2579633,51.3548034 C49.0907983,50.6639315 49.3694065,49.9154873 50.0380668,49.5700513 C50.2609535,49.4549058 50.5395617,49.3973333 50.8181703,49.3973333 L59.7336386,50.9517949 C59.3993084,52.218393 58.842092,53.3698461 58.1177101,54.4637266 L58.1177101,54.4637266 Z" id="Shape" fill="#FFFFFF"></path>
                        </g>
                    </g>
                </g>
            </g>
        </g>
    </g>
</svg>